<svg version="1.1" id="Layer_1" xmlns="http://www.w3.org/2000/svg" xmlns:xlink="http://www.w3.org/1999/xlink" x="0px" y="0px"
	 width="100%" viewBox="0 0 140 140" enable-background="new 0 0 140 140" xml:space="preserve">
<path fill="#010101" opacity="1.000000" stroke="none" 
	d="
M80.000000,141.000000 
	C53.333332,141.000000 27.166666,141.000000 1.000000,141.000000 
	C1.000000,94.333336 1.000000,47.666668 1.000000,1.000000 
	C47.666668,1.000000 94.333336,1.000000 141.000000,1.000000 
	C141.000000,47.666668 141.000000,94.333336 141.000000,141.000000 
	C120.833336,141.000000 100.666664,141.000000 80.000000,141.000000 
M77.392616,39.368061 
	C75.166092,41.569397 73.058540,43.913872 70.659645,45.907837 
	C69.564842,46.817844 67.895271,47.036369 66.486389,47.568516 
	C66.140137,45.933918 65.448090,44.279415 65.540710,42.670074 
	C65.642036,40.909332 66.473663,39.191803 66.977814,37.452770 
	C67.718254,34.898659 66.354240,34.623173 63.425621,34.850605 
	C60.612946,34.888329 57.800266,34.926052 54.134850,34.743958 
	C45.037868,34.106720 39.458279,39.184975 34.666656,45.813824 
	C33.224068,40.007736 28.452103,34.668701 32.545769,28.018459 
	C33.034336,27.224770 31.219576,23.754913 30.007227,23.463953 
	C28.133425,23.014242 25.229277,23.632273 23.961269,24.950754 
	C23.023691,25.925653 23.248255,29.839098 24.256748,30.522497 
	C27.255577,32.554638 26.880600,35.175972 26.879660,37.933334 
	C26.876657,46.733395 27.118814,55.542469 26.789007,64.330154 
	C26.589060,69.657730 28.651070,72.474899 33.946518,74.034355 
	C34.075378,76.962761 34.204239,79.891174 34.075031,83.696907 
	C33.785141,97.108475 39.770054,107.021492 51.496414,114.499390 
	C65.080750,121.625084 78.558632,121.674210 92.578300,113.750114 
	C93.753784,112.833977 94.990166,111.985497 96.095047,110.990913 
	C104.499451,103.425545 109.649132,94.463432 108.393631,81.849915 
	C108.590965,78.894264 108.788292,75.938606 109.729744,72.971916 
	C114.271538,71.932785 116.195526,69.208252 116.069908,64.443626 
	C115.833946,55.494160 115.834229,46.528763 116.116837,37.582008 
	C116.189445,35.283199 117.961891,33.085930 118.436111,30.737545 
	C118.851242,28.681826 119.381447,25.706682 118.320930,24.551960 
	C117.184952,23.315088 113.702515,22.821730 112.257782,23.690153 
	C110.903175,24.504396 109.711838,28.422419 110.473816,29.406469 
	C112.983597,32.647675 111.332161,35.357731 110.544189,38.278240 
	C109.731941,41.288704 108.849495,44.280228 107.342529,46.986988 
	C103.352821,39.028484 97.616013,33.885509 87.179039,34.746166 
	C82.856308,33.569637 80.344749,36.174805 77.392616,39.368061 
M69.158722,40.500610 
	C69.158722,41.226460 69.158722,41.952305 69.158722,42.593075 
	C74.121071,37.721195 79.002007,32.929245 84.612717,27.420822 
	C79.308746,27.420822 74.794823,27.420822 69.887878,27.420822 
	C71.177399,23.348045 72.250717,19.958124 73.208000,16.934681 
	C68.205620,21.808529 63.131088,26.752674 57.781544,31.964766 
	C62.549843,31.964766 67.118431,31.964766 72.081726,31.964766 
	C71.102089,34.854790 70.267288,37.317554 69.158722,40.500610 
z"/>
<path fill="#C9C9C9" opacity="1.000000" stroke="none" 
	d="
M34.333099,82.819580 
	C34.204239,79.891174 34.075378,76.962761 33.942581,73.120918 
	C34.357079,63.605133 34.775517,55.002785 35.193954,46.400436 
	C39.458279,39.184975 45.037868,34.106720 54.557976,35.324875 
	C55.003880,44.121677 55.026653,52.337570 54.597931,60.650421 
	C40.689201,60.734489 41.204952,59.914890 41.314323,73.925026 
	C41.319519,74.590324 41.305687,75.255836 41.316017,75.921021 
	C41.405025,81.652191 42.681278,82.955124 48.335457,82.960297 
	C62.473934,82.973221 76.612434,82.958282 90.750923,82.963020 
	C101.052788,82.966476 101.078178,82.972435 101.045647,72.441597 
	C101.012611,61.749203 102.897453,60.414856 89.926392,60.759045 
	C89.272911,60.776386 88.614342,60.602524 87.936523,60.079597 
	C87.944687,51.423378 87.974480,43.205250 88.004280,34.987122 
	C97.616013,33.885509 103.352821,39.028484 107.603119,47.542534 
	C108.237671,56.393036 108.611641,64.687996 108.985619,72.982956 
	C108.788292,75.938606 108.590965,78.894264 107.967979,82.384064 
	C96.852539,89.409836 88.760315,97.309555 91.985489,111.414803 
	C92.163757,112.194450 91.949989,113.063751 91.918694,113.891319 
	C78.558632,121.674210 65.080750,121.625084 51.215378,113.790573 
	C50.928684,108.431419 50.967964,103.780296 50.887955,99.131226 
	C50.866058,97.858803 50.947903,96.042183 50.196537,95.412086 
	C45.025337,91.075523 39.645691,86.987534 34.333099,82.819580 
M78.268021,93.883873 
	C71.876198,93.883873 65.484375,93.883873 58.923588,93.883873 
	C59.058487,96.236610 59.150345,97.838753 59.245483,99.498077 
	C67.404633,99.498077 75.249893,99.498077 83.247574,99.498077 
	C83.247574,97.561264 83.247574,95.967987 83.247574,94.076996 
	C81.762321,94.006050 80.479858,93.944786 78.268021,93.883873 
z"/>
<path fill="#FDFCFB" opacity="1.000000" stroke="none" 
	d="
M55.049427,60.553459 
	C55.026653,52.337570 55.003880,44.121677 54.984348,35.434784 
	C57.800266,34.926052 60.612946,34.888329 63.888691,35.409164 
	C64.355804,40.934807 64.317032,45.902405 64.376289,50.868832 
	C64.432297,55.562687 67.593979,56.581406 71.438492,56.502373 
	C75.281822,56.423370 78.338837,55.372280 78.141563,50.556526 
	C77.985847,46.755432 78.042915,42.945625 78.005478,39.139687 
	C80.344749,36.174805 82.856308,33.569637 87.591660,34.866646 
	C87.974480,43.205250 87.944687,51.423378 87.481224,60.186485 
	C76.381516,60.672127 65.715469,60.612793 55.049427,60.553459 
z"/>
<path fill="#737373" opacity="1.000000" stroke="none" 
	d="
M109.357681,72.977432 
	C108.611641,64.687996 108.237671,56.393036 107.930733,47.689056 
	C108.849495,44.280228 109.731941,41.288704 110.544189,38.278240 
	C111.332161,35.357731 112.983597,32.647675 110.473816,29.406469 
	C109.711838,28.422419 110.903175,24.504396 112.257782,23.690153 
	C113.702515,22.821730 117.184952,23.315088 118.320930,24.551960 
	C119.381447,25.706682 118.851242,28.681826 118.436111,30.737545 
	C117.961891,33.085930 116.189445,35.283199 116.116837,37.582008 
	C115.834229,46.528763 115.833946,55.494160 116.069908,64.443626 
	C116.195526,69.208252 114.271538,71.932785 109.357681,72.977432 
z"/>
<path fill="#737373" opacity="1.000000" stroke="none" 
	d="
M34.930305,46.107132 
	C34.775517,55.002785 34.357079,63.605133 33.886063,72.684052 
	C28.651070,72.474899 26.589060,69.657730 26.789007,64.330154 
	C27.118814,55.542469 26.876657,46.733395 26.879660,37.933334 
	C26.880600,35.175972 27.255577,32.554638 24.256748,30.522497 
	C23.248255,29.839098 23.023691,25.925653 23.961269,24.950754 
	C25.229277,23.632273 28.133425,23.014242 30.007227,23.463953 
	C31.219576,23.754913 33.034336,27.224770 32.545769,28.018459 
	C28.452103,34.668701 33.224068,40.007736 34.930305,46.107132 
z"/>
<path fill="#757575" opacity="1.000000" stroke="none" 
	d="
M34.204063,83.258240 
	C39.645691,86.987534 45.025337,91.075523 50.196537,95.412086 
	C50.947903,96.042183 50.866058,97.858803 50.887955,99.131226 
	C50.967964,103.780296 50.928684,108.431419 50.958141,113.550972 
	C39.770054,107.021492 33.785141,97.108475 34.204063,83.258240 
z"/>
<path fill="#737373" opacity="1.000000" stroke="none" 
	d="
M92.248497,113.820717 
	C91.949989,113.063751 92.163757,112.194450 91.985489,111.414803 
	C88.760315,97.309555 96.852539,89.409836 107.825394,82.795113 
	C109.649132,94.463432 104.499451,103.425545 96.095047,110.990913 
	C94.990166,111.985497 93.753784,112.833977 92.248497,113.820717 
z"/>
<path fill="#EEBD36" opacity="1.000000" stroke="none" 
	d="
M69.295609,40.140465 
	C70.267288,37.317554 71.102089,34.854790 72.081726,31.964766 
	C67.118431,31.964766 62.549843,31.964766 57.781544,31.964766 
	C63.131088,26.752674 68.205620,21.808529 73.208000,16.934681 
	C72.250717,19.958124 71.177399,23.348045 69.887878,27.420822 
	C74.794823,27.420822 79.308746,27.420822 84.612717,27.420822 
	C79.002007,32.929245 74.121071,37.721195 69.158722,42.593075 
	C69.158722,41.952305 69.158722,41.226460 69.295609,40.140465 
z"/>
<path fill="#EC4121" opacity="1.000000" stroke="none" 
	d="
M77.699051,39.253876 
	C78.042915,42.945625 77.985847,46.755432 78.141563,50.556526 
	C78.338837,55.372280 75.281822,56.423370 71.438492,56.502373 
	C67.593979,56.581406 64.432297,55.562687 64.376289,50.868832 
	C64.317032,45.902405 64.355804,40.934807 64.353905,35.505119 
	C66.354240,34.623173 67.718254,34.898659 66.977814,37.452770 
	C66.473663,39.191803 65.642036,40.909332 65.540710,42.670074 
	C65.448090,44.279415 66.140137,45.933918 66.486389,47.568516 
	C67.895271,47.036369 69.564842,46.817844 70.659645,45.907837 
	C73.058540,43.913872 75.166092,41.569397 77.699051,39.253876 
z"/>
<path fill="#030404" opacity="1.000000" stroke="none" 
	d="
M54.597931,60.650421 
	C65.715469,60.612793 76.381516,60.672127 87.502853,60.624573 
	C88.614342,60.602524 89.272911,60.776386 89.926392,60.759045 
	C102.897453,60.414856 101.012611,61.749203 101.045647,72.441597 
	C101.078178,82.972435 101.052788,82.966476 90.750923,82.963020 
	C76.612434,82.958282 62.473934,82.973221 48.335457,82.960297 
	C42.681278,82.955124 41.405025,81.652191 41.316017,75.921021 
	C41.305687,75.255836 41.319519,74.590324 41.314323,73.925026 
	C41.204952,59.914890 40.689201,60.734489 54.597931,60.650421 
M48.495945,76.813454 
	C52.113125,81.223206 55.349285,81.118454 57.025040,75.904877 
	C57.930271,73.088547 57.172184,69.516190 56.384155,66.487976 
	C56.076839,65.307037 53.527481,63.866016 52.179615,64.029526 
	C50.746090,64.203423 48.690495,65.956009 48.388435,67.342186 
	C47.775814,70.153587 48.162724,73.182777 48.495945,76.813454 
M84.979515,69.029213 
	C84.224190,72.980896 84.615967,76.722015 88.030121,79.275192 
	C88.894440,79.921547 91.688927,79.714355 91.958626,79.135834 
	C93.280342,76.300636 94.806755,73.194702 94.756027,70.210022 
	C94.720078,68.095276 92.288040,66.021255 90.925568,63.929054 
	C89.000755,65.354073 87.075943,66.779099 84.979515,69.029213 
z"/>
<path fill="#0A0A0A" opacity="1.000000" stroke="none" 
	d="
M78.732712,93.883698 
	C80.479858,93.944786 81.762321,94.006050 83.247574,94.076996 
	C83.247574,95.967987 83.247574,97.561264 83.247574,99.498077 
	C75.249893,99.498077 67.404633,99.498077 59.245483,99.498077 
	C59.150345,97.838753 59.058487,96.236610 58.923588,93.883873 
	C65.484375,93.883873 71.876198,93.883873 78.732712,93.883698 
z"/>
<path fill="#2FCAEE" opacity="1.000000" stroke="none" 
	d="
M48.316772,76.467819 
	C48.162724,73.182777 47.775814,70.153587 48.388435,67.342186 
	C48.690495,65.956009 50.746090,64.203423 52.179615,64.029526 
	C53.527481,63.866016 56.076839,65.307037 56.384155,66.487976 
	C57.172184,69.516190 57.930271,73.088547 57.025040,75.904877 
	C55.349285,81.118454 52.113125,81.223206 48.316772,76.467819 
z"/>
<path fill="#2FCDF2" opacity="1.000000" stroke="none" 
	d="
M85.065323,68.616669 
	C87.075943,66.779099 89.000755,65.354073 90.925568,63.929054 
	C92.288040,66.021255 94.720078,68.095276 94.756027,70.210022 
	C94.806755,73.194702 93.280342,76.300636 91.958626,79.135834 
	C91.688927,79.714355 88.894440,79.921547 88.030121,79.275192 
	C84.615967,76.722015 84.224190,72.980896 85.065323,68.616669 
z"/>
</svg>